<?xml version="1.0" encoding="iso-8859-1"?>
<!-- Generator: Adobe Illustrator 19.0.0, SVG Export Plug-In . SVG Version: 6.00 Build 0)  -->
<svg version="1.1" id="Layer_1" xmlns="http://www.w3.org/2000/svg" xmlns:xlink="http://www.w3.org/1999/xlink" x="0px" y="0px"
	 viewBox="0 0 511.99 511.99" style="enable-background:new 0 0 511.99 511.99;" xml:space="preserve">
<g>
	<g>
		<path d="M270.526,307.838c-19.5-24.39-12.109-57.366-12.047-57.663l3.891-16.18l-16.328,3.227
			c-21.625,4.281-38.905,13.953-51.343,28.742c-8.765,10.406-15.14,23.437-19.046,38.843l-9.391-12.281l-6.687,18.25
			c-10.531,28.687-8.203,56.124,6.546,77.217c13.844,19.844,38.312,32.655,62.312,32.655c0,0,0,0,0.016,0c0.016,0,0.047,0,0.078,0
			l10.593-0.938c19.953-3.5,37.906-16.53,46.594-34.623C292.244,371.509,298.947,343.431,270.526,307.838z M266.495,375.837
			c-6.656,13.827-22.312,23.483-38.062,23.483c-17.25,0-34.843-9.234-44.827-23.53c-8.703-12.453-11.281-27.828-7.672-45.016
			c0.359,0.203,0.672,0.391,0.938,0.578l14.5,10.453l2.312-17.719c2.438-18.671,8.266-33.593,17.344-44.389
			c6.5-7.727,14.656-13.492,24.718-17.414c-0.5,15.492,2.093,38.835,18.109,58.881C269.526,340.774,274.011,360.196,266.495,375.837
			z"/>
	</g>
</g>
<g>
	<g>
		<path d="M308.994,53.334H138.997c-5.89,0-10.671,4.773-10.671,10.664s4.781,10.664,10.671,10.664h169.997
			c5.89,0,10.671-4.773,10.671-10.664C319.665,58.108,314.884,53.334,308.994,53.334z"/>
	</g>
</g>
<g>
	<g>
		<path d="M308.994,95.998H138.997c-5.89,0-10.671,4.773-10.671,10.664c0,5.89,4.781,10.671,10.671,10.671h169.997
			c5.89,0,10.671-4.781,10.671-10.671C319.665,100.771,314.884,95.998,308.994,95.998z"/>
	</g>
</g>
<g>
	<g>
		<path d="M223.995,138.661h-84.999c-5.89,0-10.671,4.781-10.671,10.672s4.782,10.664,10.672,10.664h84.998
			c5.891,0,10.672-4.773,10.672-10.664C234.667,143.442,229.886,138.661,223.995,138.661z"/>
	</g>
</g>
<g>
	<g>
		<path d="M415.991,63.998h-10.702c-5.891,0-10.672,4.773-10.672,10.664s4.781,10.672,10.672,10.672h10.608c0.031,0,0.062,0,0.094,0
			c11.766,0,21.328,9.57,21.328,21.328c0,0.031,0,0.062,0,0.094h-42.733l0.078,85.193l42.655,21.382v117.318v42.688
			c0,17.624-14.344,31.999-31.999,31.999c-17.641,0-31.999-14.375-31.999-31.999v-42.688V21.335C373.321,9.554,363.774,0,351.993,0
			H95.998C84.217,0,74.67,9.555,74.67,21.335v426.656c-11.781,0-21.343,9.562-21.343,21.344v42.655h42.671h255.995h42.671v-42.655
			c0-11.781-9.562-21.344-21.343-21.344v-32c8.922,6.688,19.999,10.656,31.999,10.656c29.452,0,53.343-23.874,53.343-53.311V106.662
			C458.663,83.1,439.554,63.998,415.991,63.998z M437.256,138.669c-5.859,0.039-10.594,4.797-10.594,10.664
			s4.734,10.625,10.594,10.656v29.444l-21.281-10.663l-0.031-50.679h21.312V138.669z M95.998,21.335h255.995v170.661H95.998V21.335z
			 M95.998,213.331h255.995v234.66H95.998V213.331z M373.321,490.646H74.67v-21.311h298.651V490.646z"/>
	</g>
</g>
<g>
</g>
<g>
</g>
<g>
</g>
<g>
</g>
<g>
</g>
<g>
</g>
<g>
</g>
<g>
</g>
<g>
</g>
<g>
</g>
<g>
</g>
<g>
</g>
<g>
</g>
<g>
</g>
<g>
</g>
</svg>
